<?xml version="1.0" encoding="UTF-8"?>
<svg xmlns="http://www.w3.org/2000/svg" xmlns:xlink="http://www.w3.org/1999/xlink" width="16px" height="16px" viewBox="0 0 16 16" version="1.1">
<g id="surface1">
<path style=" stroke:none;fill-rule:nonzero;fill:rgb(80.392157%,80.392157%,80.392157%);fill-opacity:1;" d="M 14.289062 12.515625 L 12.957031 12.515625 L 10.996094 15.371094 L 9.160156 12.515625 L 1.742188 12.515625 C 0.878906 12.515625 0.175781 11.8125 0.175781 10.945312 L 0.175781 2.164062 C 0.175781 1.300781 0.878906 0.597656 1.742188 0.597656 L 14.289062 0.597656 C 15.152344 0.597656 15.855469 1.300781 15.855469 2.164062 L 15.855469 10.945312 C 15.855469 11.8125 15.152344 12.515625 14.289062 12.515625 Z M 3.5625 5.300781 C 2.765625 5.300781 2.117188 5.945312 2.117188 6.742188 C 2.117188 7.539062 2.765625 8.1875 3.5625 8.1875 C 4.359375 8.1875 5.003906 7.539062 5.003906 6.742188 C 5.003906 5.945312 4.355469 5.300781 3.5625 5.300781 Z M 7.953125 5.300781 C 7.15625 5.300781 6.507812 5.945312 6.507812 6.742188 C 6.507812 7.539062 7.15625 8.1875 7.953125 8.1875 C 8.75 8.1875 9.394531 7.539062 9.394531 6.742188 C 9.394531 5.945312 8.75 5.300781 7.953125 5.300781 Z M 12.34375 5.300781 C 11.546875 5.300781 10.898438 5.945312 10.898438 6.742188 C 10.898438 7.539062 11.546875 8.1875 12.34375 8.1875 C 13.140625 8.1875 13.785156 7.539062 13.785156 6.742188 C 13.785156 5.945312 13.140625 5.300781 12.34375 5.300781 Z M 12.34375 5.300781 "/>
</g>
</svg>
