<svg width="612.08" height="612.08" xmlns="http://www.w3.org/2000/svg"><path fill="none" d="M-1-1h582v402H-1z"/><g><path fill="#999" d="M239.177 0C107.805 0 1.285 106.52 1.285 237.893s106.52 237.893 237.893 237.893c50.518 0 97.368-15.757 135.879-42.597l.028-.028 176.432 176.433c3.274 3.274 8.48 3.358 11.839 0l47.551-47.551c3.274-3.274 3.106-8.703-.028-11.838L434.473 373.8c26.84-38.539 42.597-85.39 42.597-135.907C477.07 106.52 370.55 0 239.177 0zm0 419.811c-100.475 0-181.918-81.443-181.918-181.918S138.703 55.975 239.177 55.975s181.918 81.443 181.918 181.918-81.443 181.918-181.918 181.918z" stroke="null"/></g></svg>